<?xml version="1.0" encoding="utf-8"?>
<!-- Generator: Adobe Illustrator 23.0.4, SVG Export Plug-In . SVG Version: 6.00 Build 0)  -->
<svg version="1.1" id="Layer_1" xmlns="http://www.w3.org/2000/svg" xmlns:xlink="http://www.w3.org/1999/xlink" x="0px" y="0px"
	 viewBox="0 0 131 82" style="enable-background:new 0 0 131 82;" xml:space="preserve">
<style type="text/css">
	.st0{fill:#FEFEFD;}
	.st1{fill:#8BC540;}
	.st2{fill:#976435;}
</style>
<path class="st0" d="M65.13,80.56c-21.46,0-42.92,0-64.38,0.02C0.12,80.58,0,80.45,0,79.83C0.02,53.59,0.02,27.35,0,1.11
	c0-0.63,0.12-0.75,0.75-0.75c42.92,0.02,85.84,0.02,128.77,0c0.63,0,0.75,0.12,0.75,0.75c-0.02,26.24-0.02,52.48,0,78.72
	c0,0.63-0.12,0.75-0.75,0.75C108.05,80.56,86.59,80.56,65.13,80.56z M66.72,75.28c-0.66,0.3-0.54,1.03-0.8,1.54
	c-0.38,0.74-0.37,1.64-0.15,2.48c0.17,0.65,0.81,0.78,1.29,0.99c0.36,0.16,0.51-0.48,0.55-0.68c0.22-1.12,0.91-2.09,1.05-3.23
	c0.24-0.2,0.34-0.48,0.47-0.75c0.69-1.45,1.17-3.01,2.33-4.21c0.94-0.97,1.94-1.85,3.02-2.66c0.45-0.34,0.92-0.68,1.43-0.91
	c0.19-0.09,0.89-0.36,0.76,0.24c-0.14,0.65-0.37,1.32-0.78,1.91c-1.17,1.68-2.55,3.12-4.5,4.12c0.8,0.52,1.53,0.44,2.21,0.23
	c2.51-0.79,4.47-2.18,5.27-4.85c0.49-1.65-0.19-2.56-1.94-2.49c-0.4,0.01-0.75,0.2-1.12,0.29c-1.11,0.27-1.85,1.18-2.85,1.63
	c-0.05-0.06-0.11-0.12-0.16-0.17c0.54-1.04,1.32-1.89,2.16-2.7c-0.61-0.44-1.32-0.54-2.03-0.66c-0.25-0.04-0.5-0.07-0.67,0.15
	c-0.41,0.51-0.93,0.92-1.28,1.49c-0.87,1.46-1.48,3.05-2.39,4.49C67.83,72.71,67.13,73.93,66.72,75.28z M83.19,69.68
	c-0.07-0.07-0.13-0.13-0.2-0.2c0.12-0.58,0.57-0.94,0.93-1.36c0.89-1.02,0.89-1-0.41-1.43c-0.87-0.28-1.51-0.22-2.06,0.69
	c-0.43,0.72-0.86,1.43-1.22,2.18c-0.63,1.32-1.23,2.65-1.82,3.99c-0.15,0.33-0.12,0.6,0.3,0.81c0.38,0.19,0.77,0.35,1.17,0.49
	c0.37,0.13,0.54,0.01,0.64-0.38c0.57-2.22,1.94-3.75,3.99-4.77c0.53-0.27,0.74-0.2,1.13,0.15c0.56,0.5,1.12,1.13,2.02,0.76
	c0.26,0.55-0.26,0.86-0.3,1.31c-0.17,1.58,1.45,3.22,3.21,2.99c2.99-0.39,5.51-1.86,6.51-4.91c0.19-0.58,0.31-1.43-0.31-1.76
	c-1.07-0.58-2.06-1.35-3.27-1.68c-0.06-0.02-0.12,0-0.18,0.01c-1.69,0.3-3.07,1.18-4.28,2.36c-0.31,0.3-0.48,0.95-0.99,0.68
	c-0.42-0.22-0.18-0.83-0.17-1.27c0-0.14,0.09-0.28,0.17-0.4c0.47-0.69,0.12-0.91-0.54-0.97c-0.44-0.04-0.77,0.09-1.14,0.39
	C85.36,68.21,84.45,69.2,83.19,69.68z M47.19,70.02c-0.05-0.04-0.1-0.09-0.14-0.13c0.04-0.18,0.03-0.38,0.11-0.53
	c1.75-3.27,4.13-6.01,7.1-8.22c0.37-0.28,1.11-0.45,1-0.89c-0.13-0.52-0.89-0.53-1.41-0.63c-0.71-0.14-1.44-0.51-2.15,0.12
	c-2.08,1.83-3.88,3.87-5.37,6.22c-1.19,1.86-1.95,3.9-2.71,5.94c-0.3,0.8-0.42,1.72-0.2,2.61c0.09,0.39,0.36,0.63,0.71,0.76
	c0.24,0.09,0.38-0.1,0.5-0.29c0.67-1.1,1.53-2.07,2.41-2.99c1.35-1.42,2.84-2.68,4.62-3.55c0.18-0.09,0.39-0.3,0.56-0.08
	c0.18,0.23-0.1,0.34-0.21,0.51c-0.87,1.36-1.71,2.74-2.37,4.22c-0.14,0.31-0.13,0.59,0.16,0.9c0.71,0.77,2.97,0.77,3.65-0.07
	c0.05-0.06,0.08-0.2,0.06-0.23c-0.09-0.07-0.2-0.13-0.31-0.13c-0.33-0.02-0.78,0.33-0.94-0.18c-0.13-0.41,0.15-0.78,0.38-1.16
	c1.14-1.9,2.7-3.41,4.35-4.84c-1.67-1.49-3.59-1.47-5.84-0.13C49.74,68.06,48.56,69.17,47.19,70.02z M74.58,56.06
	c0.4,0.13,0.79,0.15,1.17-0.04c3.39-0.09,6.79-0.1,10.21-0.34c-0.08-0.35-0.22-0.31-0.33-0.31c-1.94-0.01-3.89,0-5.83-0.01
	c-1.85-0.02-3.71-0.05-5.56-0.09c-0.38-0.01-0.81,0.08-0.81-0.56c-0.03-3.4-0.76-6.71-1.32-10.04c-0.21-1.24,0.4-2.16,1.65-2.47
	c1.9-0.47,3.9-0.57,5.69-1.49c1.61,0.23,3.22,0.22,4.8-0.17c3.91-0.95,5.18-3.55,4.46-7.1c-0.4-1.98-1.31-3.83-2.22-5.66
	c-0.24-0.49-0.44-0.56-0.87-0.42c-1.64,0.53-3.31,1.01-4.92,1.63c-0.59,0.23-0.9,0.13-1.23-0.3c-2.41-3.13-5.58-5.41-8.65-7.81
	c-0.27-0.21-0.55-0.29-0.89-0.01c-1.61,1.3-3.28,2.53-4.87,3.85c-0.55,0.46-0.86,0.29-1.17-0.15c-0.95-1.36-2.25-2.41-3.32-3.66
	c-0.2-0.23-0.45-0.55-0.92-0.25c-0.94,0.6-1.95,1.09-2.9,1.67c-3.1,1.9-6.26,3.71-8.35,6.86c-1.19,1.79-1.32,3.58-0.08,5.01
	c1.99,2.31,4.73,3.43,7.61,4.23c2.17,1.75,4.6,3.05,7.22,4c2.26,0.82,3.56,2.7,3.61,5.14c0.04,2.18-0.79,4.12-1.4,6.12
	c-0.33,1.08-1.02,1.62-2.28,1.42c-1.04-0.16-2.12-0.03-3.19-0.03c-0.39-0.02-0.78-0.07-1.18-0.07c-3.71,0.03-7.42,0.12-11.11-0.35
	c-1.09-0.14-2.24-0.16-3.16-0.95c-1.13-0.97-1.62-2.23-1.71-3.65c-0.08-1.21-0.07-2.43-0.1-3.64c0.18-2.39,0.88-4.69,1.23-7.04
	c0.1-0.69,0.04-1.41,0.18-2.09c0.4-1.92,0.51-3.8-0.03-5.72c-0.5-1.79-1.55-2.93-3.37-3.36c-1.47-0.35-2.97-0.2-4.45-0.2
	c-0.58,0-1.16,0-1.74,0c0.94-0.59,1.93-0.91,2.97-1.13c2.13-0.45,3.82-1.35,4.71-3.63c1.06-2.7,0.66-5.34,0.36-8.02
	c-0.21-1.88-1.06-3.66-1.01-5.6c0.03-1.39,0.71-2.36,2.39-2.2c1.15,0.11,2.29,0.4,3.45,0.28c0.74-0.08,0.95,0.22,0.94,0.92
	c-0.05,2.46,0.02,4.93-0.12,7.39c-0.07,1.28,1.02,2.57,2.25,2.68c1.32,0.12,2.53-0.24,3.74-0.64c2.32-0.76,4.5-1.87,6.82-2.64
	c2.03-0.68,3.92-0.6,5.91,0.21c8.67,3.54,17.36,7.01,26.05,10.49c0.24,0.09,0.41,0.45,0.9,0.21c-0.39-0.22-0.68-0.41-1-0.55
	c-7.82-3.5-15.46-7.36-23.1-11.22c-1.9-0.96-3.9-1.74-6.08-1.63c-2.32,0.12-4.5,0.9-6.67,1.67c-1.65,0.58-3.32,1.15-4.97,1.72
	c-0.3,0.1-0.65,0.32-0.71-0.28c-0.11-1.16-0.17-2.35,0.12-3.45c0.42-1.62,0.57-3.23,0.32-4.86c-0.27-1.74-0.81-2.2-2.24-2.36
	c-2.63-0.29-5.27-0.47-7.92-0.35c-1.09,0.05-2.21,0.38-2.78,1.3c-1.22,1.99-1.54,4.24-1.19,6.54c0.38,2.57,0.95,5.11,1.06,7.72
	c0.04,1.02-0.47,1.8-1,2.54c-0.82,1.14-2.2,1.27-3.41,1.69c-1.88,0.64-3.84,1.09-5.42,2.4c-1.4,1.16-1.02,2.3,0.38,2.99
	c1,0.49,2.1,0.59,3.2,0.65c2.1,0.11,4.2-0.02,6.3-0.07c1.11-0.02,1.47,0.28,1.63,1.39c0.49,3.59,0.26,7.18-0.18,10.74
	c-0.21,1.73-0.32,3.44-0.33,5.16c-0.25,1-0.07,2,0.07,2.98c0.25,1.85,1.11,3.31,2.84,4.21c2.28,1.18,4.75,1.45,7.24,1.53
	c4.26,0.15,8.51-0.21,12.77-0.26c0.14,0,0.29-0.07,0.43-0.11c1.8,0.04,3.59-0.04,5.39-0.17c0.4,0.16,0.79,0.14,1.18-0.04
	C71.35,56.15,72.96,56.1,74.58,56.06z M40.95,62.36c0.04,0.7-0.19,1.37-0.26,2.04c-0.29,2.64-1.28,4.98-2.65,7.2
	c-1.3,2.11-3.12,3.62-5.44,4.52c-0.39,0.15-0.68,0.07-0.99-0.2c-0.34-0.3-0.34-0.69-0.19-1c0.22-0.49,0.5-0.97,0.86-1.36
	c0.95-1,0.97-0.99-0.41-1.42c-0.29-0.09-0.59-0.15-0.88-0.24c-0.39-0.12-0.72-0.05-0.95,0.31c-0.51,0.81-1.12,1.57-1.16,2.58
	c-0.02,0.47,0.06,0.87,0.5,1.18c1.53,1.09,3.26,1.38,5.01,0.93c3.29-0.84,5.42-3.17,7.1-5.98c0.94-1.57,1.58-3.29,2.24-4.98
	c0.43-1.11,0.79-2.28,0.97-3.48c0.07-0.45-0.05-0.69-0.47-0.83c-0.81-0.26-1.63-0.46-2.48-0.58c-0.62-0.09-0.95,0.06-0.82,0.76
	C40.98,61.99,40.95,62.18,40.95,62.36z M55.44,73.05c0.02,0.1,0.02,0.37,0.13,0.57c0.61,1.05,2.87,1.5,3.82,0.74
	c0.68-0.54,1.3-1.15,1.94-1.74c0.18-0.17,0.31-0.43,0.58-0.38c0.37,0.07,0.13,0.4,0.18,0.6c0.06,0.24,0.14,0.42,0.28,0.64
	c0.54,0.78,1.4,0.9,2.2,1.16c0.27,0.09,0.67,0.25,0.87,0.01c0.2-0.25-0.06-0.55-0.26-0.77c-0.18-0.2-0.16-0.45-0.17-0.69
	c-0.04-1.01,0.42-1.88,0.91-2.7c0.55-0.92,1.28-1.72,1.86-2.62c0.2-0.31,0.73-0.75,0.07-1.15c-0.89-0.55-2.15-0.36-2.9,0.36
	c-0.64,0.62-0.93,1.46-1.44,2.14c-1.17,1.56-2.7,2.8-4.17,4.08c-0.19,0.17-0.5,0.51-0.79,0.28c-0.3-0.23-0.15-0.64-0.03-0.93
	c0.94-2.18,2.17-4.18,3.9-5.84c0.22-0.22,0.37-0.41-0.03-0.62c-0.95-0.52-2.06-0.35-2.95,0.33c-1.15,0.87-2.01,1.98-2.71,3.19
	C56.13,70.68,55.51,71.7,55.44,73.05z"/>
<path class="st1" d="M55.96,38.44c-2.88-0.8-5.62-1.92-7.61-4.23c-1.24-1.43-1.1-3.22,0.08-5.01c2.09-3.15,5.25-4.96,8.35-6.86
	c0.95-0.58,1.96-1.07,2.9-1.67c0.47-0.3,0.72,0.02,0.92,0.25c1.07,1.25,2.37,2.29,3.32,3.66c0.31,0.44,0.61,0.61,1.17,0.15
	c1.59-1.33,3.25-2.56,4.87-3.85c0.34-0.28,0.62-0.2,0.89,0.01c3.07,2.4,6.24,4.68,8.65,7.81c0.33,0.43,0.64,0.53,1.23,0.3
	c1.61-0.62,3.27-1.1,4.92-1.63c0.43-0.14,0.63-0.07,0.87,0.42c0.9,1.83,1.81,3.68,2.22,5.66c0.72,3.54-0.55,6.14-4.46,7.1
	c-1.58,0.39-3.19,0.4-4.8,0.17c1.54-1.11,2.16-2.62,1.4-3.59c-0.12,1.01-0.73,1.63-1.55,2.01c-0.63,0.29-1.31,0.48-1.97,0.69
	c-1.67,0.54-3.41,0.88-5.08,1.4c-1.14,0.36-2.21,0.58-3.36,0.25c-2.79-0.81-5.65-1.47-8-3.34c-1.15-0.92-2.36-1.82-3.37-2.84
	c-1.28-1.29-2.59-2.85-1.64-5.01c0.05-0.12,0.05-0.3-0.21-0.44c-0.52,1.06-1.09,2.09-1.4,3.23c-0.3,1.11-0.15,2.17,0.34,3.25
	C54.97,37.11,55.58,37.69,55.96,38.44z"/>
<path class="st2" d="M39.82,48.05c0.01-1.73,0.11-3.44,0.33-5.16c0.44-3.56,0.67-7.16,0.18-10.74c-0.15-1.11-0.51-1.42-1.63-1.39
	c-2.1,0.05-4.2,0.18-6.3,0.07c-1.1-0.06-2.19-0.15-3.2-0.65c-1.4-0.69-1.77-1.84-0.38-2.99c1.59-1.31,3.55-1.76,5.42-2.4
	c1.21-0.41,2.59-0.55,3.41-1.69c0.53-0.74,1.04-1.52,1-2.54c-0.11-2.61-0.68-5.15-1.06-7.72c-0.34-2.29-0.03-4.55,1.19-6.54
	c0.57-0.92,1.69-1.26,2.78-1.3c2.65-0.11,5.29,0.07,7.92,0.35c1.43,0.16,1.97,0.62,2.24,2.36c0.25,1.62,0.11,3.24-0.32,4.86
	c-0.29,1.1-0.23,2.29-0.12,3.45c0.06,0.6,0.41,0.39,0.71,0.28c1.66-0.57,3.32-1.13,4.97-1.72c2.17-0.77,4.35-1.55,6.67-1.67
	c2.19-0.11,4.19,0.68,6.08,1.63c7.64,3.86,15.28,7.72,23.1,11.22c0.31,0.14,0.6,0.33,1,0.55c-0.49,0.24-0.66-0.11-0.9-0.21
	c-8.69-3.48-17.39-6.95-26.05-10.49c-1.99-0.81-3.88-0.89-5.91-0.21c-2.32,0.77-4.5,1.88-6.82,2.64c-1.21,0.4-2.42,0.76-3.74,0.64
	c-1.23-0.11-2.32-1.41-2.25-2.68c0.13-2.46,0.07-4.93,0.12-7.39c0.01-0.7-0.19-1-0.94-0.92c-1.16,0.12-2.3-0.16-3.45-0.28
	c-1.68-0.16-2.36,0.81-2.39,2.2c-0.04,1.95,0.8,3.72,1.01,5.6c0.31,2.68,0.7,5.33-0.36,8.02c-0.9,2.28-2.58,3.18-4.71,3.63
	c-1.04,0.22-2.02,0.54-2.97,1.13c0.58,0,1.16,0,1.74,0c1.49,0,2.98-0.15,4.45,0.2c1.82,0.43,2.86,1.57,3.37,3.36
	c0.54,1.92,0.42,3.81,0.03,5.72c-0.14,0.68-0.08,1.4-0.18,2.09c-0.35,2.36-1.05,4.65-1.23,7.04c-0.29,0.04-0.27,0.27-0.28,0.48
	c-0.01,0.51-0.01,1.02-0.01,1.53c-0.01,1.02-0.14,1.07-1.09,0.64C40.71,48.81,40.49,48.12,39.82,48.05z"/>
<path class="st2" d="M55.96,38.44c-0.38-0.74-0.99-1.32-1.34-2.1c-0.49-1.07-0.64-2.13-0.34-3.25c0.3-1.14,0.88-2.17,1.4-3.23
	c0.26,0.14,0.26,0.32,0.21,0.44c-0.95,2.15,0.36,3.72,1.64,5.01c1.01,1.02,2.22,1.92,3.37,2.84c2.35,1.87,5.2,2.53,8,3.34
	c1.15,0.33,2.22,0.11,3.36-0.25c1.67-0.52,3.41-0.86,5.08-1.4c0.66-0.21,1.34-0.4,1.97-0.69c0.82-0.38,1.43-0.99,1.55-2.01
	c0.76,0.97,0.14,2.48-1.4,3.59c-1.79,0.91-3.78,1.02-5.69,1.49c-1.25,0.31-1.86,1.23-1.65,2.47c0.56,3.33,1.29,6.64,1.32,10.04
	c0.01,0.63,0.43,0.55,0.81,0.56c1.85,0.04,3.71,0.07,5.56,0.09c1.94,0.02,3.89,0.01,5.83,0.01c0.1,0,0.25-0.04,0.33,0.31
	c-3.42,0.23-6.81,0.25-10.2,0.34c-0.4-0.15-0.79-0.2-1.17,0.04c-1.62,0.05-3.24,0.09-4.85,0.14c-0.4-0.16-0.79-0.2-1.18,0.04
	c-1.79,0.13-3.59,0.21-5.39,0.17c-0.51-0.28-1.06-0.11-1.58-0.12c-0.85-0.02-1.36-0.46-1.67-1.2c1.06,0,2.15-0.13,3.19,0.03
	c1.26,0.2,1.95-0.34,2.28-1.42c0.62-2,1.45-3.94,1.4-6.12c-0.05-2.44-1.34-4.32-3.61-5.14C60.56,41.49,58.13,40.19,55.96,38.44z"/>
<path class="st1" d="M47.19,70.02c1.37-0.85,2.56-1.95,3.95-2.79c2.24-1.35,4.16-1.36,5.84,0.13c-1.65,1.44-3.21,2.94-4.35,4.84
	c-0.23,0.38-0.5,0.75-0.38,1.16c0.16,0.51,0.61,0.16,0.94,0.18c0.11,0.01,0.22,0.07,0.31,0.13c0.03,0.02-0.01,0.17-0.06,0.23
	c-0.67,0.83-2.93,0.84-3.65,0.07c-0.29-0.31-0.3-0.59-0.16-0.9c0.67-1.48,1.5-2.86,2.37-4.22c0.11-0.17,0.39-0.28,0.21-0.51
	c-0.18-0.23-0.38-0.01-0.56,0.08c-1.78,0.87-3.27,2.13-4.62,3.55c-0.88,0.93-1.74,1.89-2.41,2.99c-0.12,0.2-0.26,0.38-0.5,0.29
	c-0.35-0.13-0.62-0.37-0.71-0.76c-0.21-0.89-0.1-1.8,0.2-2.61c0.76-2.04,1.52-4.08,2.71-5.94c1.49-2.34,3.3-4.39,5.37-6.22
	c0.72-0.63,1.44-0.26,2.15-0.12c0.52,0.1,1.27,0.12,1.41,0.63c0.11,0.44-0.63,0.61-1,0.89c-2.98,2.22-5.35,4.95-7.1,8.22
	c-0.08,0.15-0.08,0.35-0.11,0.53c-0.01,0.07-0.03,0.14-0.04,0.22C47.06,70.07,47.12,70.04,47.19,70.02z"/>
<path class="st2" d="M83.19,69.68c1.26-0.48,2.17-1.47,3.18-2.29c0.37-0.3,0.71-0.43,1.14-0.39c0.66,0.05,1,0.28,0.54,0.97
	c-0.08,0.12-0.17,0.27-0.17,0.4c-0.01,0.44-0.24,1.05,0.17,1.27c0.52,0.27,0.69-0.38,0.99-0.68c1.21-1.18,2.59-2.06,4.28-2.36
	c0.06-0.01,0.13-0.03,0.18-0.01c1.2,0.34,2.19,1.1,3.27,1.68c0.62,0.33,0.5,1.18,0.31,1.76c-1,3.05-3.52,4.52-6.51,4.91
	c-1.76,0.23-3.38-1.41-3.21-2.99c0.05-0.45,0.56-0.76,0.3-1.31c-0.89,0.37-1.45-0.26-2.02-0.76c-0.39-0.35-0.6-0.41-1.13-0.15
	c-2.05,1.02-3.41,2.55-3.99,4.77c-0.1,0.39-0.27,0.51-0.64,0.38c-0.4-0.14-0.78-0.3-1.17-0.49c-0.42-0.21-0.44-0.48-0.3-0.81
	c0.59-1.34,1.19-2.67,1.82-3.99c0.36-0.75,0.8-1.46,1.22-2.18c0.54-0.91,1.18-0.98,2.06-0.69c1.3,0.42,1.3,0.41,0.41,1.43
	c-0.36,0.41-0.81,0.77-0.93,1.36c-0.06,0.08-0.12,0.17-0.18,0.25C82.95,69.82,83.08,69.79,83.19,69.68z M95.34,69.33
	c0.01-1.2-0.21-1.36-1.34-0.96c-0.86,0.31-1.64,0.79-2.28,1.42c-0.85,0.85-1.69,1.76-1.98,2.99c-0.19,0.81,0.32,1.53,1.01,1.42
	C93.18,73.82,95.29,71.49,95.34,69.33z"/>
<path class="st1" d="M40.95,62.36c0-0.18,0.03-0.37,0-0.55c-0.13-0.7,0.2-0.85,0.82-0.76c0.85,0.12,1.67,0.32,2.48,0.58
	c0.42,0.14,0.53,0.38,0.47,0.83c-0.18,1.2-0.53,2.37-0.97,3.48c-0.66,1.69-1.3,3.41-2.24,4.98c-1.68,2.81-3.81,5.14-7.1,5.98
	c-1.75,0.45-3.48,0.16-5.01-0.93c-0.44-0.31-0.52-0.71-0.5-1.18c0.04-1.02,0.65-1.78,1.16-2.58c0.23-0.36,0.55-0.43,0.95-0.31
	c0.29,0.09,0.59,0.15,0.88,0.24c1.38,0.44,1.35,0.42,0.41,1.42c-0.36,0.39-0.65,0.87-0.86,1.36c-0.14,0.31-0.14,0.7,0.19,1
	c0.31,0.27,0.59,0.35,0.99,0.2c2.32-0.9,4.14-2.42,5.44-4.52c1.37-2.21,2.36-4.56,2.65-7.2C40.77,63.73,40.99,63.06,40.95,62.36z"/>
<path class="st1" d="M55.44,73.05c0.08-1.36,0.69-2.37,1.27-3.38c0.71-1.22,1.57-2.32,2.71-3.19c0.89-0.67,2-0.84,2.95-0.33
	c0.4,0.22,0.25,0.41,0.03,0.62c-1.72,1.67-2.96,3.66-3.9,5.84c-0.12,0.29-0.28,0.7,0.03,0.93c0.29,0.22,0.6-0.11,0.79-0.28
	c1.47-1.28,3-2.52,4.17-4.08c0.51-0.68,0.8-1.53,1.44-2.14c0.75-0.72,2.02-0.91,2.9-0.36c0.65,0.4,0.12,0.85-0.07,1.15
	c-0.58,0.9-1.31,1.71-1.86,2.62c-0.49,0.81-0.94,1.69-0.91,2.7c0.01,0.24-0.01,0.49,0.17,0.69c0.2,0.22,0.47,0.52,0.26,0.77
	c-0.19,0.24-0.59,0.08-0.87-0.01c-0.79-0.26-1.65-0.38-2.2-1.16c-0.15-0.21-0.23-0.4-0.28-0.64c-0.05-0.21,0.19-0.54-0.18-0.6
	c-0.27-0.05-0.4,0.22-0.58,0.38c-0.63,0.59-1.26,1.2-1.94,1.74c-0.96,0.76-3.22,0.32-3.82-0.74C55.46,73.42,55.46,73.16,55.44,73.05
	z"/>
<path class="st2" d="M72.94,68.93c1-0.46,1.73-1.37,2.85-1.63c0.37-0.09,0.72-0.28,1.12-0.29c1.75-0.06,2.43,0.85,1.94,2.49
	c-0.8,2.67-2.76,4.07-5.27,4.85c-0.68,0.21-1.41,0.29-2.21-0.23c1.95-1,3.33-2.43,4.5-4.12c0.42-0.6,0.64-1.26,0.78-1.91
	c0.13-0.6-0.57-0.33-0.76-0.24c-0.51,0.23-0.97,0.57-1.43,0.91c-1.08,0.8-2.08,1.69-3.02,2.66c-1.16,1.2-1.64,2.76-2.33,4.21
	c-0.13,0.28-0.22,0.56-0.47,0.75c-0.86,0.01-1.22-0.86-1.93-1.1c0.42-1.35,1.12-2.57,1.86-3.74c0.91-1.44,1.52-3.03,2.39-4.49
	c0.34-0.58,0.87-0.98,1.28-1.49c0.18-0.22,0.43-0.19,0.67-0.15c0.71,0.12,1.42,0.22,2.03,0.66c-0.84,0.81-1.62,1.66-2.16,2.7
	c-0.07,0.08-0.14,0.15-0.2,0.23C72.72,69.09,72.84,69.05,72.94,68.93z"/>
<path class="st1" d="M59.91,55.08c0.31,0.74,0.81,1.19,1.67,1.2c0.53,0.01,1.08-0.16,1.58,0.12c-0.14,0.04-0.29,0.11-0.43,0.11
	c-4.26,0.06-8.51,0.41-12.77,0.26c-2.49-0.09-4.96-0.35-7.24-1.53c-1.73-0.9-2.59-2.36-2.84-4.21c-0.13-0.98-0.31-1.98-0.07-2.98
	c0.66,0.07,0.89,0.75,1.44,1.01c0.95,0.43,1.09,0.38,1.09-0.64c0-0.51,0-1.02,0.01-1.53c0-0.21-0.02-0.44,0.28-0.48
	c0.03,1.21,0.02,2.43,0.1,3.64c0.09,1.43,0.59,2.68,1.71,3.65c0.92,0.79,2.07,0.81,3.16,0.95c3.69,0.47,7.4,0.38,11.11,0.35
	C59.13,55.01,59.52,55.05,59.91,55.08z"/>
<path class="st1" d="M66.72,75.28c0.71,0.24,1.07,1.11,1.93,1.1c-0.14,1.14-0.83,2.11-1.05,3.23c-0.04,0.2-0.18,0.84-0.55,0.68
	c-0.48-0.21-1.12-0.34-1.29-0.99c-0.22-0.84-0.23-1.75,0.15-2.48C66.18,76.31,66.06,75.57,66.72,75.28z"/>
<path class="st1" d="M74.58,56.06c0.38-0.24,0.77-0.19,1.17-0.04C75.37,56.21,74.98,56.19,74.58,56.06z"/>
<path class="st1" d="M68.55,56.23c0.39-0.24,0.78-0.2,1.18-0.04C69.34,56.38,68.95,56.39,68.55,56.23z"/>
<path class="st0" d="M47.19,70.02c-0.06,0.03-0.12,0.06-0.18,0.08c0.01-0.07,0.03-0.14,0.04-0.22
	C47.09,69.93,47.14,69.97,47.19,70.02z"/>
<path class="st0" d="M95.34,69.33c-0.05,2.16-2.16,4.49-4.59,4.88c-0.69,0.11-1.2-0.61-1.01-1.42c0.29-1.24,1.13-2.14,1.98-2.99
	c0.63-0.63,1.42-1.11,2.28-1.42C95.13,67.96,95.36,68.13,95.34,69.33z"/>
<path class="st0" d="M83.19,69.68c-0.11,0.11-0.24,0.14-0.38,0.05c0.06-0.08,0.12-0.17,0.18-0.25
	C83.06,69.55,83.12,69.61,83.19,69.68z"/>
<path class="st0" d="M72.94,68.93c-0.1,0.13-0.22,0.16-0.36,0.06c0.07-0.08,0.14-0.15,0.2-0.23C72.84,68.81,72.89,68.87,72.94,68.93
	z"/>
</svg>
